# xmcd
#
# Track frame offsets:
#	150
#	24453
#	46054
#	69436
#	91331
#	113208
#	133544
#	155992
#	176745
#	196683
#
# Disc length: 2937 seconds
#
# Revision: 0
# Processed by: cddbd v1.5.2PL0 Copyright (c) Steve Scherf et al.
# Submitted via: audiograbber 1.83.01
#
DISCID=800b770a
DTITLE=Various Artist - Der deutsche Hitmix Vol.2 - Die Party 2013 - CD1
DYEAR=2012
DGENRE=Schlager
TTITLE0=Block A - Sie liebt Ihn immer noch - Michael Wendler     Das kann kein 
TTITLE0=Zufall sein - Andrea Berg     Was immer Du tust - Charly Brunner     La
TTITLE0=ss uns noch einmal lügen - Claudia Jung
TTITLE1=Block B - Dich zu lieben 2012 - Roland Kaiser     Große Liebe - Michell
TTITLE1=e     Mary Jane - Jürgen Peter     Wie ein Stern 2012 - Frank Schöbel
TTITLE2=Block C - Für einen Tag - Jürgen Drews     Ole Ola ( Heißer als Fieber 
TTITLE2=) - Rosanna Rocci     Ich schreibe Deinen Namen in den Himmel - Alexand
TTITLE2=er Ferro     Irgendwo Irgendwann - Cathrin Geissler
TTITLE3=Block D - Stimmen im Wind - Claudia Calidri     Du bist es - DJ Ötzi   
TTITLE3=Das rote Kleid - Diana Sorbello     So oder so - Bernhard Brink
TTITLE4=Block E - Baby I love you - Sandy Wagner     Alles dreht - Michael Fisc
TTITLE4=her     Ein weißes Boot - Fantasy     Er kommt wieder her - Cathrin Gei
TTITLE4=ssler
TTITLE5=Block F - Vater Abraham - Tim Toupet     Bis ans Ende der  Ewigkeit - A
TTITLE5=lexander Lexer     I hob an Kurzen in da Hosn - Münchner Zwietracht    
TTITLE5=Nit Allein - Brings
TTITLE6=Block G - Heut vergess ich... - Andreas Martin     Mein Himmelbett ist 
TTITLE6=einsam - Norman Lange     Inferno - Simone     Gott hatte einen Traum -
TTITLE6=Stefan Peters
TTITLE7=Block H - Was wäre wenn - Michael Wendler     Göttergatte - Claudia Jun
TTITLE7=g     Das 1.000 Sterne Hotel - Christoff     Wie viel Fantasie hat die 
TTITLE7=Nacht - Melanie Miric
TTITLE8=Block I - Der DJ aus den Bergen - DJ Ötzi     Ne was is das schön - Jür
TTITLE8=gen Drews     Dat is geil - Brings     Ein Diamant - Tim Toupet
TTITLE9=Block J - Süchtig - Michael Fischer     Ich lass die Sonne für dich sch
TTITLE9=einen - Andreas Martin     Heute weis ich erst, wie ich Dich liebe - Fr
TTITLE9=anziska     Wie weit willst Du gehn - Bernhard Brink
EXTD=Luxusausgabe über 160 Hits auf 4 CD´s
EXTT0=
EXTT1=
EXTT2=
EXTT3=
EXTT4=
EXTT5=
EXTT6=
EXTT7=
EXTT8=
EXTT9=
PLAYORDER=
